<?xml version="1.0" encoding="utf-8"?>
<!-- Generator: Adobe Illustrator 21.0.0, SVG Export Plug-In . SVG Version: 6.00 Build 0)  -->
<svg version="1.1" id="Capa_1" xmlns="http://www.w3.org/2000/svg" xmlns:xlink="http://www.w3.org/1999/xlink" x="0px" y="0px"
	 viewBox="0 0 14 14" style="enable-background:new 0 0 14 14;" xml:space="preserve">
<style type="text/css">
	.st0{fill:#555555;}
</style>
<g>
	<path class="st0" d="M13.7,2.3C13.5,2.1,13.2,2,12.9,2h-1.1V1.3c0-0.3-0.1-0.6-0.4-0.9c-0.3-0.2-0.6-0.4-1-0.4H10
		C9.6,0,9.3,0.1,9,0.4C8.7,0.6,8.6,0.9,8.6,1.3V2H5.4V1.3c0-0.3-0.1-0.6-0.4-0.9C4.7,0.1,4.4,0,4,0H3.5c-0.4,0-0.7,0.1-1,0.4
		C2.3,0.6,2.2,0.9,2.2,1.3V2H1.1C0.8,2,0.5,2.1,0.3,2.3C0.1,2.5,0,2.7,0,3v10c0,0.3,0.1,0.5,0.3,0.7C0.5,13.9,0.8,14,1.1,14h11.8
		c0.3,0,0.5-0.1,0.8-0.3c0.2-0.2,0.3-0.4,0.3-0.7V3C14,2.7,13.9,2.5,13.7,2.3z M3.5,13H1.1v-2.3h2.4V13z M3.5,10.3H1.1V7.8h2.4V10.3
		z M3.5,7.3H1.1V5h2.4V7.3z M3.3,3.7c-0.1,0-0.1-0.1-0.1-0.2V1.3c0-0.1,0-0.1,0.1-0.2C3.4,1,3.4,1,3.5,1H4c0.1,0,0.1,0,0.2,0.1
		c0.1,0,0.1,0.1,0.1,0.2v2.2c0,0.1,0,0.1-0.1,0.2C4.2,3.7,4.1,3.8,4,3.8H3.5C3.4,3.8,3.4,3.7,3.3,3.7z M6.7,13H4v-2.3h2.7V13L6.7,13
		z M6.7,10.3H4V7.8h2.7V10.3L6.7,10.3z M6.7,7.3H4V5h2.7V7.3L6.7,7.3z M10,13H7.3v-2.3H10V13z M10,10.3H7.3V7.8H10V10.3z M10,7.3
		H7.3V5H10V7.3z M9.8,3.7c-0.1,0-0.1-0.1-0.1-0.2V1.3c0-0.1,0-0.1,0.1-0.2C9.8,1,9.9,1,10,1h0.5c0.1,0,0.1,0,0.2,0.1
		c0.1,0,0.1,0.1,0.1,0.2v2.2c0,0.1,0,0.1-0.1,0.2c-0.1,0-0.1,0.1-0.2,0.1H10C9.9,3.8,9.8,3.7,9.8,3.7z M12.9,13h-2.4v-2.3h2.4V13z
		 M12.9,10.3h-2.4V7.8h2.4V10.3z M12.9,7.3h-2.4V5h2.4V7.3z"/>
</g>
</svg>
