<?xml version="1.0" encoding="utf-8"?>
<!-- Generator: Adobe Illustrator 21.0.0, SVG Export Plug-In . SVG Version: 6.00 Build 0)  -->
<svg version="1.1" id="Capa_1" xmlns="http://www.w3.org/2000/svg" xmlns:xlink="http://www.w3.org/1999/xlink" x="0px" y="0px"
	 viewBox="0 0 14 14" style="enable-background:new 0 0 14 14;" xml:space="preserve">
<style type="text/css">
	.st0{fill:#555555;}
</style>
<g>
	<path class="st0" d="M13.7,3.5L13,2.8c-0.2-0.2-0.5-0.3-0.8-0.3c-0.3,0-0.6,0.1-0.8,0.3L7,7.3L2.6,2.8C2.4,2.6,2.1,2.5,1.8,2.5
		C1.5,2.5,1.2,2.6,1,2.8L0.3,3.5C0.1,3.8,0,4,0,4.4C0,4.7,0.1,5,0.3,5.2l5.8,6c0.2,0.2,0.5,0.3,0.8,0.3c0.3,0,0.6-0.1,0.8-0.3l5.8-6
		C13.9,5,14,4.7,14,4.4C14,4,13.9,3.8,13.7,3.5z"/>
</g>
</svg>
