<?xml version="1.0" encoding="utf-8"?>
<!-- Generator: Adobe Illustrator 21.0.0, SVG Export Plug-In . SVG Version: 6.00 Build 0)  -->
<svg version="1.1" id="Capa_1" xmlns="http://www.w3.org/2000/svg" xmlns:xlink="http://www.w3.org/1999/xlink" x="0px" y="0px"
	 viewBox="0 0 14 14" style="enable-background:new 0 0 14 14;" xml:space="preserve">
<style type="text/css">
	.st0{fill:#555555;}
</style>
<g>
	<g>
		<path class="st0" d="M13.1,3.5c-0.6-1.1-1.5-1.9-2.5-2.5C9.4,0.3,8.3,0,7,0C5.7,0,4.6,0.3,3.5,0.9C2.4,1.6,1.6,2.4,0.9,3.5
			C0.3,4.6,0,5.7,0,7c0,1.3,0.3,2.4,0.9,3.5c0.6,1.1,1.5,1.9,2.5,2.5C4.6,13.7,5.7,14,7,14s2.4-0.3,3.5-0.9c1.1-0.6,1.9-1.5,2.5-2.5
			C13.7,9.4,14,8.3,14,7C14,5.7,13.7,4.6,13.1,3.5z M11.3,9.5c-0.4,0.8-1,1.4-1.8,1.8C8.7,11.7,7.9,12,7,12c-0.9,0-1.7-0.2-2.5-0.7
			c-0.8-0.4-1.4-1-1.8-1.8C2.3,8.7,2,7.9,2,7c0-0.9,0.2-1.7,0.7-2.5c0.4-0.8,1-1.4,1.8-1.8C5.3,2.3,6.1,2,7,2c0.9,0,1.7,0.2,2.5,0.7
			c0.8,0.4,1.4,1,1.8,1.8C11.7,5.3,12,6.1,12,7C12,7.9,11.7,8.7,11.3,9.5z"/>
		<path class="st0" d="M7.9,3.5H7.3c-0.1,0-0.2,0-0.2,0.1C7,3.6,7,3.7,7,3.8V7H5C4.9,7,4.8,7,4.7,7.1C4.7,7.1,4.7,7.2,4.7,7.3v0.6
			c0,0.1,0,0.2,0.1,0.2C4.8,8.1,4.9,8.2,5,8.2h2.9c0.1,0,0.2,0,0.2-0.1C8.1,8,8.2,8,8.2,7.9V3.8c0-0.1,0-0.2-0.1-0.2
			C8,3.5,8,3.5,7.9,3.5z"/>
	</g>
</g>
</svg>
