<?xml version="1.0" encoding="utf-8"?>
<!-- Generator: Adobe Illustrator 21.0.0, SVG Export Plug-In . SVG Version: 6.00 Build 0)  -->
<svg version="1.1" id="Capa_1" xmlns="http://www.w3.org/2000/svg" xmlns:xlink="http://www.w3.org/1999/xlink" x="0px" y="0px"
	 viewBox="0 0 13 13" style="enable-background:new 0 0 13 13;" xml:space="preserve">
<style type="text/css">
	.st0{fill:#FFFFFF;}
</style>
<g>
	<g>
		<path class="st0" d="M6.5,6.5c0.9,0,1.7-0.3,2.3-1c0.6-0.6,1-1.4,1-2.3c0-0.9-0.3-1.7-1-2.3C8.2,0.3,7.4,0,6.5,0S4.8,0.3,4.2,1
			c-0.6,0.6-1,1.4-1,2.3c0,0.9,0.3,1.7,1,2.3C4.8,6.2,5.6,6.5,6.5,6.5z"/>
		<path class="st0" d="M12.5,9.9c0-0.3-0.1-0.6-0.1-0.9c-0.1-0.3-0.1-0.6-0.2-0.9c-0.1-0.3-0.2-0.6-0.4-0.8
			c-0.2-0.3-0.3-0.5-0.5-0.7c-0.2-0.2-0.4-0.3-0.7-0.5C10.2,6,9.9,6,9.6,6C9.5,6,9.4,6,9.2,6.1C9,6.3,8.8,6.4,8.6,6.5
			C8.3,6.7,8,6.8,7.6,7C7.3,7.1,6.9,7.1,6.5,7.1C6.1,7.1,5.7,7.1,5.4,7C5,6.8,4.7,6.7,4.4,6.5C4.2,6.4,4,6.3,3.8,6.1
			C3.6,6,3.5,6,3.5,6C3.1,6,2.8,6,2.5,6.1C2.2,6.2,2,6.4,1.8,6.6C1.6,6.8,1.4,7,1.2,7.3C1.1,7.5,1,7.8,0.9,8.1
			C0.8,8.4,0.7,8.7,0.7,9C0.6,9.3,0.6,9.6,0.5,9.9c0,0.3,0,0.6,0,0.9c0,0.7,0.2,1.2,0.6,1.6c0.4,0.4,1,0.6,1.7,0.6h7.4
			c0.7,0,1.2-0.2,1.7-0.6c0.4-0.4,0.6-0.9,0.6-1.6C12.5,10.5,12.5,10.2,12.5,9.9z"/>
	</g>
</g>
</svg>
